<svg width="369" height="451" viewBox="0 0 369 451" fill="none" xmlns="http://www.w3.org/2000/svg">
<path d="M123.839 309.292C123.014 306.149 123.519 297.439 123.576 293.637C123.598 289.342 123.594 285.047 123.562 280.754C123.408 261.599 123.401 242.442 123.538 223.288C123.532 219.441 122.973 196.105 123.919 194.129C127.947 192.187 170.176 194.509 177.901 193.581C180.022 193.326 206.153 193.56 207.344 193.971C207.69 195.878 207.517 198.611 207.526 200.619C207.58 212.358 207.482 224.065 207.701 235.807C207.781 240.067 207.456 244.539 207.441 248.849L207.442 368.569C207.408 380.172 207.665 392.187 207.539 403.672C207.41 410.687 207.382 417.702 207.454 424.717C207.475 428.774 207.313 431.792 207.689 435.892C204.542 433.442 198.672 426.677 195.846 423.474C192.183 419.324 188.465 415.224 184.694 411.172L153.24 376.617L132.765 354.102C130.996 352.117 123.406 344.399 123.455 342.389C123.629 335.177 123.199 327.097 123.72 319.934C122.324 317.712 119.344 314.899 117.398 312.967L104.033 299.889C101.599 297.522 97.5148 293.834 95.7285 291.229C95.872 290.992 96.02 290.759 96.1725 290.529C96.9618 289.339 98.7465 287.407 100.16 287.272C101.698 287.127 104.319 290.019 105.342 291.057C110.16 295.942 114.727 301.034 119.803 305.657C121.145 306.877 122.355 308.244 123.839 309.292ZM133.572 318.764L133.712 319.037C135.158 321.842 140.192 326.309 142.605 328.709L158.574 344.692C160.592 346.682 169.49 354.679 169.53 357.032C169.14 358.022 166.895 361.567 165.639 360.474C155.831 351.929 147.409 341.869 137.559 333.377C136.736 332.667 134.882 330.537 134.225 330.249L133.919 330.537C134.179 333.649 133.193 338.034 135.134 340.612C137.393 343.614 140.233 346.314 142.771 349.114L159.618 367.677C171.245 380.384 184.501 396.104 196.653 407.907C196.166 404.289 196.432 395.564 196.412 391.339L196.349 335.519C196.345 331.889 196.707 306.917 195.662 305.744C190.546 300.009 182.583 292.679 176.967 287.099C162.651 272.874 148.44 258.109 133.769 244.304C134.186 249.227 133.876 254.137 133.885 259.072C133.945 269.214 133.939 279.357 133.866 289.497L133.834 307.874C133.831 310.709 133.965 316.127 133.572 318.764ZM196.684 266.557C196.206 261.934 196.324 257.109 196.342 252.457L196.374 235.244C196.398 225.877 195.935 213.615 196.537 204.613C189.72 203.896 176.403 204.34 168.94 204.338L148.097 204.344C144.431 204.351 139.758 204.242 136.184 204.471C135.239 204.541 134.913 204.406 134.234 204.904C134.76 207.237 189.724 259.927 194.012 265.307C194.407 265.804 195.702 266.854 196.423 266.974L196.684 266.557Z" fill="#E5E1CB"/>
<path d="M95.7285 291.228C95.872 290.991 96.02 290.758 96.1725 290.528C96.9618 289.338 98.7465 287.406 100.16 287.271C101.698 287.126 104.319 290.018 105.342 291.056C110.16 295.941 114.727 301.033 119.803 305.656C121.145 306.876 122.355 308.243 123.839 309.291C126.201 311.508 130.987 317.156 133.572 318.763L133.712 319.036C135.158 321.841 140.192 326.308 142.605 328.708L158.574 344.691C160.592 346.681 169.49 354.678 169.53 357.031C169.14 358.021 166.895 361.566 165.639 360.473C155.831 351.928 147.409 341.868 137.559 333.376C136.736 332.666 134.882 330.536 134.225 330.248L133.919 330.536C133.603 328.463 125.466 320.651 123.72 319.933C122.324 317.711 119.344 314.898 117.398 312.966L104.033 299.888C101.599 297.521 97.5148 293.833 95.7285 291.228Z" fill="#ED8120"/>
<path d="M164.078 89.9651C164.401 89.9501 164.725 89.9381 165.049 89.9289C176.295 89.6146 187.309 94.3142 195.431 102.01C200.657 107.043 204.396 113.418 206.237 120.436C208.066 127.554 207.306 136.244 207.464 143.621C207.745 156.776 207.114 170.302 207.471 183.422C194.586 183.66 180.729 183.341 167.745 183.318L140.039 183.385C136.839 183.393 126.393 183.632 123.924 182.979C123.069 181.812 123.498 158.055 123.503 154.331V138.328C123.515 124.904 123.544 114.886 133.372 104.076C141.537 95.0959 151.987 90.5446 164.078 89.9651ZM165.878 162.855C177.669 162.436 186.908 152.573 186.556 140.779C186.204 128.986 176.393 119.691 164.597 119.977C152.708 120.266 143.324 130.172 143.678 142.06C144.033 153.947 153.992 163.276 165.878 162.855ZM169.315 109.212C184.592 111.765 191.626 119.985 196.839 133.964C197.311 127.481 196.247 123.25 193.435 117.419C189.923 110.137 186.171 107.089 178.978 103.742C172.729 100.834 169.523 100.752 162.69 100.97C146.084 101.749 134.447 115.159 133.749 131.36C133.738 131.617 133.857 131.684 134.001 131.903C134.738 131.168 135.567 128.821 136.007 127.824C141.621 115.082 155.618 107.535 169.315 109.212ZM175.993 172.006C182.986 172.367 189.991 172.109 196.946 172.302C196.693 170.478 196.907 167.854 196.91 165.936L196.902 151.681C196.846 150.75 197.007 150.62 196.536 150.053C195.959 150.671 195.949 151.146 195.749 152.007C195.574 152.515 195.413 152.916 195.201 153.41C191.582 161.955 184.651 168.666 175.993 172.006ZM133.758 172.503C140.262 171.663 146.442 172.681 153.065 172.111L153.938 172.068L154.023 171.815C152.738 171.018 151.261 170.46 149.903 169.728C145.995 167.609 142.543 164.741 139.746 161.286C138.476 159.712 137.533 158.285 136.597 156.508C136.048 155.466 134.753 151.188 134.034 150.752C133.199 157.028 134.321 166.046 133.758 172.503Z" fill="#E5E1CB"/>
<path d="M195.748 152.008C195.948 151.148 195.958 150.673 196.535 150.055C197.006 150.622 196.845 150.752 196.901 151.682L196.542 151.875C196.429 152.457 196.486 152.81 196.134 153.08L195.748 152.008Z" fill="#BCBDB1" fill-opacity="0.0156863"/>
<path d="M162.454 1.45967C165.111 -0.301976 168.34 -1.2239 168.634 3.20065C168.875 6.8349 168.725 10.6526 168.713 14.3061C168.623 22.0359 168.648 29.7664 168.788 37.4954C174.354 38.0566 180.115 38.6322 185.549 39.7737C223.163 47.6749 253.232 79.3231 258.284 117.583C259.194 124.483 258.999 130.813 259.417 137.644C267.757 139.023 299.417 136.798 303.644 139.07C304.119 139.326 304.419 139.815 304.557 140.326C304.767 141.116 304.714 142.701 304.222 143.37C303.529 144.308 301.672 144.5 300.582 144.581C296.682 144.871 292.557 144.476 288.629 144.445C278.407 144.366 268.312 144.195 258.109 144.967C256.742 148.342 256.439 151.436 255.289 154.895C249.784 171.452 240.577 188.443 226.278 198.927C225.847 199.243 224.294 199.413 223.716 199.478L223.089 199.166C224.224 196.512 231.401 188.974 233.599 186.011C240.424 176.815 248.744 156.399 248.602 145.201C245.919 144.864 236.992 145.159 236.397 142.14C235.349 136.809 245.179 138.38 248.279 137.805L248.589 137.745C249.922 121.784 243.592 103.434 234.924 90.2441C233.567 88.1786 231.79 86.2754 230.393 84.2821C217.095 65.3011 193.105 53.4341 170.258 51.8631C166.527 51.6066 171.078 68.8151 166.222 69.2136C163.821 69.4106 163.013 68.3724 162.53 66.0794C162.097 61.1714 162.096 56.2019 161.821 51.2574C157.71 52.0311 153.027 52.3399 149.067 53.2424C133.544 56.9014 119.249 64.5579 107.601 75.4511C105.499 77.4514 102.706 81.0244 100.801 83.3441C87.4624 99.5856 82.4866 116.797 82.0516 137.551C85.9391 138.459 90.4781 137.266 94.3704 138.886C96.6639 139.375 96.4701 143.414 94.6551 143.94C90.7241 145.078 86.7774 144.083 82.6364 145.069C82.3784 159.754 91.5721 178.939 100.649 190.344C101.168 190.996 108.184 198.883 108.482 199.064C108.037 199.3 107.092 199.84 106.656 199.993C101.256 198.322 97.5576 193.053 93.9861 188.878C84.3776 177.647 74.8049 159.786 73.1614 144.88C65.6224 143.692 32.1624 145.736 29.1441 143.853C28.5836 143.503 28.2796 142.959 28.1609 142.318C28.0114 141.512 28.0801 140.114 28.6099 139.436C29.2306 138.641 30.4329 138.39 31.3769 138.278C34.5609 137.897 38.0554 138.139 41.2709 138.138L59.8714 138.101C63.6674 138.074 67.9891 138.145 71.7266 137.733C71.7394 135.313 71.8594 132.727 71.8486 130.419C71.7596 111.179 77.6321 92.6711 88.7389 76.9824C92.6069 71.1361 97.8111 66.1676 102.956 61.4184C115.098 50.2079 131.51 42.0537 147.864 39.4774C150.5 39.0624 153.212 38.2712 155.882 37.9812C158.142 37.7357 160.174 37.6349 162.43 37.1684C161.605 30.6001 161.652 23.7984 161.718 17.1754C161.764 12.6009 161.042 5.6724 162.454 1.45967Z" fill="#ED8120"/>
<path d="M108.482 199.065C112.879 197.212 114.357 196.041 118.241 193.984C118.417 201.096 118.091 207.672 118.095 214.772C118.098 222.735 118.459 230.928 118.03 238.88C117.982 239.768 117.848 240.91 117.207 241.518C115.249 243.37 111.48 244.703 109.034 245.828C91.2118 254.013 70.679 256.455 51.2193 256.358C48.9558 256.345 44.1553 256.645 42.1888 255.86C41.1085 254.685 41.3325 238.88 41.4328 236.225C41.4685 235.385 41.531 234.548 41.6205 233.713C30.798 237.598 21.043 238.808 10.3923 234.063C-5.52371 226.969 -2.05866 211.031 13.3288 206.138C21.429 203.562 31.5048 203.374 39.6598 206.933C48.2165 211.763 45.3388 211.923 55.7435 211.871C69.925 211.8 81.5345 209.483 94.9795 205.118C99.0415 203.826 102.955 202.109 106.656 199.994C107.092 199.841 108.037 199.301 108.482 199.065ZM51.8285 222.279C52.3325 224.462 52.2728 243.175 51.9705 246.13L52.2265 246.47L52.519 246.42C54.9153 246.603 58.0798 246.325 60.5233 246.185C74.3648 245.498 87.9943 242.503 100.85 237.325C102.497 236.653 105.603 235.408 107.053 234.485C107.955 229.304 107.403 223.352 107.546 218.064C107.571 217.129 107.712 213.479 107.623 212.812C107.469 212.765 107.136 212.65 106.993 212.64C92.7958 217.635 82.5693 220.468 67.3148 221.465C62.899 221.753 55.838 221.68 51.8285 222.279ZM28.944 226.511C33.785 224.98 37.179 224.472 40.3843 220.482C35.694 215.865 28.891 214.288 22.4918 214.664C18.342 215.676 4.74489 219.104 15.1918 224.418C18.8523 226.28 24.8358 227.347 28.944 226.511Z" fill="#E5E1CB"/>
<path d="M213.366 193.781C217.241 196.47 218.872 197.058 223.09 199.166L223.716 199.477C230.342 203.693 242.669 207.434 250.417 209.003C259.464 210.913 268.684 211.89 277.929 211.919C282.929 211.962 283.117 212.434 287.369 209.805C294.524 205.382 304.424 204.264 312.582 205.962C320.909 207.281 332.742 214.245 330.164 224.325C327.527 234.629 313.442 238.484 304.137 238.096C298.704 237.871 294.732 236.816 289.667 235.564C289.837 238.069 290.112 254.526 289.559 256.019C288.149 256.876 285.164 256.371 283.437 256.414C271.099 256.734 257.637 255.646 245.617 253.204C238.094 251.676 217.77 246.246 213.311 240.321C212.674 234.859 213.452 228.672 213.228 223.152C212.825 213.231 213.143 203.68 213.366 193.781ZM224.293 234.534C226.666 235.914 229.496 236.979 232.106 237.981C247.029 243.709 262.859 246.204 278.794 246.509C278.947 246.456 279.102 246.406 279.254 246.354C279.429 246.009 279.484 246.021 279.512 245.669C279.242 241.629 279.387 236.694 279.359 232.576C279.342 229.679 279.234 224.808 279.554 222.108C274.612 221.779 269.564 221.917 264.714 221.56C253.409 220.728 241.904 218.613 231.15 215.03C228.863 214.268 226.026 212.924 223.792 212.367C224.485 216.104 224.064 218.665 224.003 222.412C223.94 226.252 223.858 230.714 224.293 234.534ZM307.382 227.829C310.952 227.193 325.127 223.34 316.254 218.628C312.092 216.443 307.414 215.427 302.719 215.688C284.922 219.5 289.272 225.78 304.324 227.863C305.109 227.972 306.569 227.883 307.382 227.829Z" fill="#E5E1CB"/>
<path d="M90.0457 325.308C90.8889 325.266 91.5004 325.583 92.1004 326.161C95.9624 329.883 99.6602 333.771 103.419 337.593L121.522 355.721C132.054 366.196 142.885 376.468 153.083 387.271C155.243 389.558 157.81 391.526 159.957 393.838C158.948 396.406 158.46 397.336 156.323 398.993C153.598 397.351 147.04 390.256 144.682 387.916L113.138 356.538C106.525 349.996 99.5629 344.036 93.3544 337.113C91.0867 334.586 88.1587 332.463 86.1699 329.666L87.0927 327.133C88.2477 326.266 88.7649 325.983 90.0457 325.308Z" fill="#ED8120"/>
<path d="M109.988 376.287C110.912 376.209 111.733 376.937 112.358 377.562C124.776 389.994 137.171 402.417 149.452 414.984C159.387 425.149 170.017 434.937 179.656 445.374C180.617 446.384 178.086 449.594 176.712 450.234C173.584 448.319 168.351 442.627 165.565 439.849L149.697 424.167L118.657 393.572C115.7 390.632 112.554 387.849 109.637 384.837C105.378 380.439 105.418 380.434 109.988 376.287Z" fill="#ED8120"/>
<path d="M222.81 84.9844C224.713 85.2966 227.333 87.6744 227.373 89.7091C226.886 91.1249 218.502 99.4074 216.92 100.914C215.524 100.304 212.416 97.8544 212.127 96.3236C212.934 94.3361 220.803 86.9621 222.81 84.9844Z" fill="#E5E1CB"/>
<path d="M216.41 169.258C218.458 170.19 225.098 177.906 226.921 179.726C228.402 181.204 224.401 184.344 223.164 185.179C221.34 184.347 212.489 175.727 212.293 173.708C212.912 171.925 214.934 170.501 216.41 169.258Z" fill="#E5E1CB"/>
<path d="M106.441 85.0703C107.511 85.0821 108.275 85.3943 109.34 86.6378C111.315 88.9423 116.98 93.7131 117.963 96.3013C118.296 97.1776 114.891 99.9286 113.971 100.666C112.733 100.027 103.17 91.2201 102.622 89.2686C102.431 88.5903 105.47 86.0051 106.441 85.0703Z" fill="#E5E1CB"/>
<path d="M113.222 169.805C115.434 169.774 118.369 172.901 117.784 174.044C115.883 177.763 110.706 182.258 107.533 185.2C105.824 184.786 103.72 182.17 102.602 180.875C103.604 179.22 111.518 171.13 113.222 169.805Z" fill="#E5E1CB"/>
<path d="M235.838 275.001V304.611H227.606V275.001H235.838Z" fill="#E5E1CB"/>
<path d="M255.94 280.839C258.656 280.839 260.812 281.749 262.408 283.569C264.004 285.361 264.802 287.797 264.802 290.877V304.611H256.57V291.969C256.57 290.625 256.22 289.575 255.52 288.819C254.82 288.035 253.882 287.643 252.706 287.643C251.474 287.643 250.508 288.035 249.808 288.819C249.108 289.575 248.758 290.625 248.758 291.969V304.611H240.526V281.049H248.758V284.409C249.486 283.345 250.466 282.491 251.698 281.847C252.93 281.175 254.344 280.839 255.94 280.839Z" fill="#E5E1CB"/>
<path d="M291.26 297.597V304.611H287.69C281.67 304.611 278.66 301.629 278.66 295.665V287.895H275.762V281.049H278.66V275.337H286.934V281.049H291.218V287.895H286.934V295.791C286.934 296.435 287.074 296.897 287.354 297.177C287.662 297.457 288.166 297.597 288.866 297.597H291.26Z" fill="#E5E1CB"/>
<path d="M310.534 280.839C313.222 280.839 315.35 281.749 316.918 283.569C318.514 285.361 319.312 287.797 319.312 290.877V304.611H311.08V291.969C311.08 290.625 310.73 289.575 310.03 288.819C309.33 288.035 308.392 287.643 307.216 287.643C305.984 287.643 305.018 288.035 304.318 288.819C303.618 289.575 303.268 290.625 303.268 291.969V304.611H295.036V273.531H303.268V284.409C303.996 283.345 304.976 282.491 306.208 281.847C307.468 281.175 308.91 280.839 310.534 280.839Z" fill="#E5E1CB"/>
<path d="M346.341 292.557C346.341 293.201 346.299 293.845 346.215 294.489H330.633C330.717 295.777 331.067 296.743 331.683 297.387C332.327 298.003 333.139 298.311 334.119 298.311C335.491 298.311 336.471 297.695 337.059 296.463H345.837C345.473 298.087 344.759 299.543 343.695 300.831C342.659 302.091 341.343 303.085 339.747 303.813C338.151 304.541 336.387 304.905 334.455 304.905C332.131 304.905 330.059 304.415 328.239 303.435C326.447 302.455 325.033 301.055 323.997 299.235C322.989 297.415 322.485 295.273 322.485 292.809C322.485 290.345 322.989 288.217 323.997 286.425C325.005 284.605 326.405 283.205 328.197 282.225C330.017 281.245 332.103 280.755 334.455 280.755C336.779 280.755 338.837 281.231 340.629 282.183C342.421 283.135 343.821 284.507 344.829 286.299C345.837 288.063 346.341 290.149 346.341 292.557ZM337.941 290.499C337.941 289.491 337.605 288.707 336.933 288.147C336.261 287.559 335.421 287.265 334.413 287.265C333.405 287.265 332.579 287.545 331.935 288.105C331.291 288.637 330.871 289.435 330.675 290.499H337.941Z" fill="#E5E1CB"/>
<path d="M241.802 343.905C239.03 343.905 236.482 343.261 234.158 341.973C231.834 340.657 229.986 338.851 228.614 336.555C227.27 334.231 226.598 331.613 226.598 328.701C226.598 325.789 227.27 323.185 228.614 320.889C229.986 318.565 231.834 316.759 234.158 315.471C236.482 314.183 239.03 313.539 241.802 313.539C244.602 313.539 247.15 314.183 249.446 315.471C251.77 316.759 253.604 318.565 254.948 320.889C256.292 323.185 256.964 325.789 256.964 328.701C256.964 331.613 256.292 334.231 254.948 336.555C253.604 338.851 251.77 340.657 249.446 341.973C247.122 343.261 244.574 343.905 241.802 343.905ZM241.802 336.261C243.902 336.261 245.554 335.575 246.758 334.203C247.99 332.831 248.606 330.997 248.606 328.701C248.606 326.349 247.99 324.501 246.758 323.157C245.554 321.785 243.902 321.099 241.802 321.099C239.674 321.099 238.008 321.785 236.804 323.157C235.6 324.501 234.998 326.349 234.998 328.701C234.998 331.025 235.6 332.873 236.804 334.245C238.008 335.589 239.674 336.261 241.802 336.261Z" fill="#E5E1CB"/>
<path d="M276.078 319.839C278.794 319.839 280.95 320.749 282.546 322.569C284.142 324.361 284.94 326.797 284.94 329.877V343.611H276.708V330.969C276.708 329.625 276.358 328.575 275.658 327.819C274.958 327.035 274.02 326.643 272.844 326.643C271.612 326.643 270.646 327.035 269.946 327.819C269.246 328.575 268.896 329.625 268.896 330.969V343.611H260.664V320.049H268.896V323.409C269.624 322.345 270.604 321.491 271.836 320.847C273.068 320.175 274.482 319.839 276.078 319.839Z" fill="#E5E1CB"/>
<path d="M311.969 331.557C311.969 332.201 311.927 332.845 311.843 333.489H296.261C296.345 334.777 296.695 335.743 297.311 336.387C297.955 337.003 298.767 337.311 299.747 337.311C301.119 337.311 302.099 336.695 302.687 335.463H311.465C311.101 337.087 310.387 338.543 309.323 339.831C308.287 341.091 306.971 342.085 305.375 342.813C303.779 343.541 302.015 343.905 300.083 343.905C297.759 343.905 295.687 343.415 293.867 342.435C292.075 341.455 290.661 340.055 289.625 338.235C288.617 336.415 288.113 334.273 288.113 331.809C288.113 329.345 288.617 327.217 289.625 325.425C290.633 323.605 292.033 322.205 293.825 321.225C295.645 320.245 297.731 319.755 300.083 319.755C302.407 319.755 304.465 320.231 306.257 321.183C308.049 322.135 309.449 323.507 310.457 325.299C311.465 327.063 311.969 329.149 311.969 331.557ZM303.569 329.499C303.569 328.491 303.233 327.707 302.561 327.147C301.889 326.559 301.049 326.265 300.041 326.265C299.033 326.265 298.207 326.545 297.563 327.105C296.919 327.637 296.499 328.435 296.303 329.499H303.569Z" fill="#E5E1CB"/>
<path d="M324.2 336.555L319.706 348.819H314.498L316.682 336.555H324.2Z" fill="#E5E1CB"/>
<path d="M262.424 359.049L256.418 382.611H247.178L243.902 368.331L240.5 382.611H231.302L225.338 359.049H233.528L236.174 374.673L239.66 359.049H248.48L252.092 374.715L254.696 359.049H262.424Z" fill="#E5E1CB"/>
<path d="M287.278 370.557C287.278 371.201 287.236 371.845 287.152 372.489H271.57C271.654 373.777 272.004 374.743 272.62 375.387C273.264 376.003 274.076 376.311 275.056 376.311C276.428 376.311 277.408 375.695 277.996 374.463H286.774C286.41 376.087 285.696 377.543 284.632 378.831C283.596 380.091 282.28 381.085 280.684 381.813C279.088 382.541 277.324 382.905 275.392 382.905C273.068 382.905 270.996 382.415 269.176 381.435C267.384 380.455 265.97 379.055 264.934 377.235C263.926 375.415 263.422 373.273 263.422 370.809C263.422 368.345 263.926 366.217 264.934 364.425C265.942 362.605 267.342 361.205 269.134 360.225C270.954 359.245 273.04 358.755 275.392 358.755C277.716 358.755 279.774 359.231 281.566 360.183C283.358 361.135 284.758 362.507 285.766 364.299C286.774 366.063 287.278 368.149 287.278 370.557ZM278.878 368.499C278.878 367.491 278.542 366.707 277.87 366.147C277.198 365.559 276.358 365.265 275.35 365.265C274.342 365.265 273.516 365.545 272.872 366.105C272.228 366.637 271.808 367.435 271.612 368.499H278.878Z" fill="#E5E1CB"/>
<path d="M297.342 370.809C297.342 368.373 297.776 366.245 298.644 364.425C299.54 362.605 300.744 361.205 302.256 360.225C303.796 359.245 305.504 358.755 307.38 358.755C309.004 358.755 310.404 359.077 311.58 359.721C312.756 360.365 313.666 361.233 314.31 362.325V359.049H322.542V382.611H314.31V379.335C313.666 380.427 312.742 381.295 311.538 381.939C310.362 382.583 308.976 382.905 307.38 382.905C305.504 382.905 303.796 382.415 302.256 381.435C300.744 380.455 299.54 379.055 298.644 377.235C297.776 375.387 297.342 373.245 297.342 370.809ZM314.31 370.809C314.31 369.297 313.89 368.107 313.05 367.239C312.238 366.371 311.23 365.937 310.026 365.937C308.794 365.937 307.772 366.371 306.96 367.239C306.148 368.079 305.742 369.269 305.742 370.809C305.742 372.321 306.148 373.525 306.96 374.421C307.772 375.289 308.794 375.723 310.026 375.723C311.23 375.723 312.238 375.289 313.05 374.421C313.89 373.553 314.31 372.349 314.31 370.809Z" fill="#E5E1CB"/>
<path d="M335.465 363.207C336.389 361.863 337.509 360.799 338.825 360.015C340.141 359.231 341.555 358.839 343.067 358.839V367.617H340.757C338.965 367.617 337.635 367.967 336.767 368.667C335.899 369.367 335.465 370.585 335.465 372.321V382.611H327.233V359.049H335.465V363.207Z" fill="#E5E1CB"/>
<path d="M368.53 370.557C368.53 371.201 368.488 371.845 368.404 372.489H352.822C352.906 373.777 353.256 374.743 353.872 375.387C354.516 376.003 355.328 376.311 356.308 376.311C357.68 376.311 358.66 375.695 359.248 374.463H368.026C367.662 376.087 366.948 377.543 365.884 378.831C364.848 380.091 363.532 381.085 361.936 381.813C360.34 382.541 358.576 382.905 356.644 382.905C354.32 382.905 352.248 382.415 350.428 381.435C348.636 380.455 347.222 379.055 346.186 377.235C345.178 375.415 344.674 373.273 344.674 370.809C344.674 368.345 345.178 366.217 346.186 364.425C347.194 362.605 348.594 361.205 350.386 360.225C352.206 359.245 354.292 358.755 356.644 358.755C358.968 358.755 361.026 359.231 362.818 360.183C364.61 361.135 366.01 362.507 367.018 364.299C368.026 366.063 368.53 368.149 368.53 370.557ZM360.13 368.499C360.13 367.491 359.794 366.707 359.122 366.147C358.45 365.559 357.61 365.265 356.602 365.265C355.594 365.265 354.768 365.545 354.124 366.105C353.48 366.637 353.06 367.435 352.864 368.499H360.13Z" fill="#E5E1CB"/>
<path d="M238.568 421.905C236.216 421.905 234.102 421.415 232.226 420.435C230.378 419.455 228.922 418.055 227.858 416.235C226.794 414.415 226.262 412.273 226.262 409.809C226.262 407.373 226.794 405.245 227.858 403.425C228.95 401.605 230.42 400.205 232.268 399.225C234.144 398.245 236.258 397.755 238.61 397.755C240.962 397.755 243.062 398.245 244.91 399.225C246.786 400.205 248.256 401.605 249.32 403.425C250.412 405.245 250.958 407.373 250.958 409.809C250.958 412.245 250.412 414.387 249.32 416.235C248.256 418.055 246.786 419.455 244.91 420.435C243.034 421.415 240.92 421.905 238.568 421.905ZM238.568 414.765C239.716 414.765 240.668 414.345 241.424 413.505C242.208 412.637 242.6 411.405 242.6 409.809C242.6 408.213 242.208 406.995 241.424 406.155C240.668 405.315 239.73 404.895 238.61 404.895C237.49 404.895 236.552 405.315 235.796 406.155C235.04 406.995 234.662 408.213 234.662 409.809C234.662 411.433 235.026 412.665 235.754 413.505C236.482 414.345 237.42 414.765 238.568 414.765Z" fill="#E5E1CB"/>
<path d="M269.721 397.839C272.437 397.839 274.593 398.749 276.189 400.569C277.785 402.361 278.583 404.797 278.583 407.877V421.611H270.351V408.969C270.351 407.625 270.001 406.575 269.301 405.819C268.601 405.035 267.663 404.643 266.487 404.643C265.255 404.643 264.289 405.035 263.589 405.819C262.889 406.575 262.539 407.625 262.539 408.969V421.611H254.307V398.049H262.539V401.409C263.267 400.345 264.247 399.491 265.479 398.847C266.711 398.175 268.125 397.839 269.721 397.839Z" fill="#E5E1CB"/>
<path d="M305.612 409.557C305.612 410.201 305.57 410.845 305.486 411.489H289.904C289.988 412.777 290.338 413.743 290.954 414.387C291.598 415.003 292.41 415.311 293.39 415.311C294.762 415.311 295.742 414.695 296.33 413.463H305.108C304.744 415.087 304.03 416.543 302.966 417.831C301.93 419.091 300.614 420.085 299.018 420.813C297.422 421.541 295.658 421.905 293.726 421.905C291.402 421.905 289.33 421.415 287.51 420.435C285.718 419.455 284.304 418.055 283.268 416.235C282.26 414.415 281.756 412.273 281.756 409.809C281.756 407.345 282.26 405.217 283.268 403.425C284.276 401.605 285.676 400.205 287.468 399.225C289.288 398.245 291.374 397.755 293.726 397.755C296.05 397.755 298.108 398.231 299.9 399.183C301.692 400.135 303.092 401.507 304.1 403.299C305.108 405.063 305.612 407.149 305.612 409.557ZM297.212 407.499C297.212 406.491 296.876 405.707 296.204 405.147C295.532 404.559 294.692 404.265 293.684 404.265C292.676 404.265 291.85 404.545 291.206 405.105C290.562 405.637 290.142 406.435 289.946 407.499H297.212Z" fill="#E5E1CB"/>
<path d="M319.985 390.489L319.019 410.523H312.005L311.039 390.489H319.985ZM315.533 421.947C314.077 421.947 312.901 421.555 312.005 420.771C311.137 419.959 310.703 418.937 310.703 417.705C310.703 416.473 311.137 415.451 312.005 414.639C312.901 413.827 314.077 413.421 315.533 413.421C316.961 413.421 318.109 413.827 318.977 414.639C319.873 415.451 320.321 416.473 320.321 417.705C320.321 418.909 319.873 419.917 318.977 420.729C318.109 421.541 316.961 421.947 315.533 421.947Z" fill="#E5E1CB"/>
<path d="M227.506 437.953V435.377H231.818V445.611H228.948V437.953H227.506Z" fill="#E5E1CB"/>
<path d="M242.67 435.741V442.279C242.67 443.39 242.366 444.239 241.76 444.827C241.162 445.415 240.336 445.709 239.282 445.709C238.162 445.709 237.266 445.397 236.594 444.771C235.931 444.146 235.6 443.245 235.6 442.069H238.316C238.325 442.844 238.61 443.231 239.17 443.231C239.674 443.231 239.926 442.914 239.926 442.279V435.741H242.67Z" fill="#E5E1CB"/>
<path d="M247.961 445.709C247.177 445.709 246.473 445.546 245.847 445.219C245.231 444.893 244.746 444.426 244.391 443.819C244.037 443.213 243.859 442.499 243.859 441.677C243.859 440.865 244.037 440.156 244.391 439.549C244.755 438.943 245.245 438.476 245.861 438.149C246.487 437.823 247.191 437.659 247.975 437.659C248.759 437.659 249.459 437.823 250.075 438.149C250.701 438.476 251.191 438.943 251.545 439.549C251.909 440.156 252.091 440.865 252.091 441.677C252.091 442.489 251.909 443.203 251.545 443.819C251.191 444.426 250.701 444.893 250.075 445.219C249.45 445.546 248.745 445.709 247.961 445.709ZM247.961 443.329C248.344 443.329 248.661 443.189 248.913 442.909C249.175 442.62 249.305 442.209 249.305 441.677C249.305 441.145 249.175 440.739 248.913 440.459C248.661 440.179 248.349 440.039 247.975 440.039C247.602 440.039 247.289 440.179 247.037 440.459C246.785 440.739 246.659 441.145 246.659 441.677C246.659 442.219 246.781 442.629 247.023 442.909C247.266 443.189 247.579 443.329 247.961 443.329Z" fill="#E5E1CB"/>
<path d="M258.374 437.687C259.27 437.687 259.979 437.991 260.502 438.597C261.034 439.195 261.3 440.007 261.3 441.033V445.611H258.556V441.397C258.556 440.949 258.439 440.599 258.206 440.347C257.972 440.086 257.66 439.955 257.268 439.955C256.857 439.955 256.535 440.086 256.302 440.347C256.068 440.599 255.952 440.949 255.952 441.397V445.611H253.208V435.251H255.952V438.877C256.194 438.523 256.521 438.238 256.932 438.023C257.352 437.799 257.832 437.687 258.374 437.687Z" fill="#E5E1CB"/>
<path d="M267.943 437.687C268.849 437.687 269.567 437.991 270.099 438.597C270.631 439.195 270.897 440.007 270.897 441.033V445.611H268.153V441.397C268.153 440.949 268.037 440.599 267.803 440.347C267.57 440.086 267.257 439.955 266.865 439.955C266.455 439.955 266.133 440.086 265.899 440.347C265.666 440.599 265.549 440.949 265.549 441.397V445.611H262.805V437.757H265.549V438.877C265.792 438.523 266.119 438.238 266.529 438.023C266.94 437.799 267.411 437.687 267.943 437.687Z" fill="#E5E1CB"/>
<path d="M274.551 437.953V435.377H278.863V445.611H275.993V437.953H274.551Z" fill="#E5E1CB"/>
<path d="M281.827 445.723C281.342 445.723 280.95 445.593 280.651 445.331C280.362 445.061 280.217 444.72 280.217 444.309C280.217 443.899 280.362 443.558 280.651 443.287C280.95 443.017 281.342 442.881 281.827 442.881C282.303 442.881 282.686 443.017 282.975 443.287C283.274 443.558 283.423 443.899 283.423 444.309C283.423 444.711 283.274 445.047 282.975 445.317C282.686 445.588 282.303 445.723 281.827 445.723ZM281.827 440.095C281.342 440.095 280.95 439.965 280.651 439.703C280.362 439.433 280.217 439.092 280.217 438.681C280.217 438.271 280.362 437.93 280.651 437.659C280.95 437.389 281.342 437.253 281.827 437.253C282.303 437.253 282.686 437.389 282.975 437.659C283.274 437.93 283.423 438.271 283.423 438.681C283.423 439.083 283.274 439.419 282.975 439.689C282.686 439.96 282.303 440.095 281.827 440.095Z" fill="#E5E1CB"/>
<path d="M284.609 438.429C284.647 437.375 284.973 436.567 285.589 436.007C286.205 435.438 287.064 435.153 288.165 435.153C288.884 435.153 289.495 435.279 289.999 435.531C290.513 435.774 290.9 436.11 291.161 436.539C291.423 436.959 291.553 437.435 291.553 437.967C291.553 438.602 291.399 439.111 291.091 439.493C290.783 439.867 290.433 440.119 290.041 440.249V440.305C291.171 440.725 291.735 441.528 291.735 442.713C291.735 443.301 291.6 443.819 291.329 444.267C291.059 444.715 290.667 445.065 290.153 445.317C289.64 445.569 289.029 445.695 288.319 445.695C287.153 445.695 286.229 445.415 285.547 444.855C284.875 444.286 284.525 443.418 284.497 442.251H287.171C287.153 442.625 287.232 442.914 287.409 443.119C287.587 443.325 287.853 443.427 288.207 443.427C288.478 443.427 288.688 443.343 288.837 443.175C288.996 443.007 289.075 442.783 289.075 442.503C289.075 442.149 288.959 441.887 288.725 441.719C288.501 441.551 288.133 441.467 287.619 441.467H287.129V439.241H287.605C287.96 439.251 288.259 439.195 288.501 439.073C288.753 438.943 288.879 438.686 288.879 438.303C288.879 438.014 288.809 437.799 288.669 437.659C288.529 437.51 288.338 437.435 288.095 437.435C287.825 437.435 287.624 437.533 287.493 437.729C287.372 437.916 287.302 438.149 287.283 438.429H284.609Z" fill="#E5E1CB"/>
<path d="M299.328 439.619V441.901H292.986V439.619H299.328Z" fill="#E5E1CB"/>
<path d="M301.29 443.931V441.663L305.588 435.531H308.598V441.551H309.676V443.931H308.598V445.611H305.826V443.931H301.29ZM306.036 438.625L304.104 441.551H306.036V438.625Z" fill="#E5E1CB"/>
</svg>
