<svg width="295" height="307" viewBox="0 0 295 307" fill="none" xmlns="http://www.w3.org/2000/svg">
<g clip-path="url(#clip0_3698_2269)">
<path d="M0 18.1172C2.47803 19.521 7.3888 24.6411 9.58552 26.8639L22.405 39.9801C28.02 45.6866 34.3685 51.6379 40.0955 57.3399C41.4598 58.9229 42.8695 60.6491 44.4355 62.0129C45.855 63.6604 47.5158 65.0916 49.1123 66.5606C54.1893 71.2344 58.7222 76.4509 63.6287 81.2941C64.349 82.0051 65.9962 82.1221 66.976 82.1366C72.741 82.2221 78.519 82.1519 84.2858 82.1524C95.2623 82.2191 106.239 82.2289 117.215 82.1819C143.062 82.1336 168.914 82.2886 194.757 82.1741C201.104 82.1459 207.06 81.2189 211.973 86.1841C216.701 90.9636 215.557 99.7769 215.587 106.035C215.656 115.021 215.643 124.007 215.548 132.993L215.658 209.69C215.662 213.727 215.376 226.659 215.777 231.288C215.954 233.323 216.927 234.04 218.357 235.468C236.226 253.304 254.045 271.222 272.052 288.897L274.052 290.869C278.725 295.912 285.283 301.442 288.695 306.999H262.908C262.678 303.319 262.652 299.627 262.835 295.944C255.902 296.092 247.87 296.092 240.945 295.924C240.178 295.954 239.307 295.929 238.531 295.922C231.822 296.149 224.278 295.834 217.204 296.019C216.706 296.139 215.026 295.784 214.391 295.684C209.326 296.169 198.464 295.937 192.975 295.942C191.989 295.672 191.855 295.639 190.82 295.742C188.463 295.964 183.991 295.899 181.483 295.914C178.295 295.932 172.457 296.179 169.406 295.772C168.916 295.662 167.176 295.792 166.57 295.824C161.445 295.399 152.318 296.102 146.82 295.972C145.927 296.244 145.783 296.112 145.357 296.762C145.277 300.197 145.605 303.554 145.409 306.999H143.386H116.371H114.196H95.0407H68.7698H49.5452H20.5163C20.4003 302.477 20.968 297.724 21.3554 293.227C21.5209 291.307 21.4784 289.687 21.7127 287.739C17.9862 287.597 3.26763 287.392 0 288.344V257.514V238.594V235.025V215.658V212.142V193.038V190.892V163.606V161.944C1.53375 161.87 8.43462 162.054 9.93902 162.267C9.3747 159.759 9.72947 157.822 9.69945 155.376C9.64327 150.801 10.1605 144.895 9.52293 140.425C6.75953 140.68 2.7954 140.722 0 140.79V137.724C2.90683 137.453 6.55737 137.505 9.52752 137.47C9.39865 130.111 10.1064 124.485 9.46568 116.428C6.41715 116.709 3.19368 116.582 0 116.803V113.937C2.97648 113.741 6.6236 113.952 9.7814 113.839C9.45295 111.956 9.65123 109.27 9.66253 107.292C9.69158 102.211 10.1201 97.4619 9.4539 92.3954C9.34135 92.0084 9.50075 91.2021 9.5582 90.7671C9.97317 86.6191 10.0048 72.1474 9.40862 68.4981C6.27222 68.4776 3.13567 68.5029 0 68.5736L0 66.2381C1.83272 66.2521 8.70962 66.6506 9.67202 65.4689C10.043 62.5864 9.9022 47.3846 9.4134 44.7614C6.29467 44.8616 3.17205 44.7939 0 44.9111V18.1172ZM166.848 87.5304C163.12 87.1806 160.368 87.2599 156.628 87.3671C153.147 87.4534 131.252 87.1899 129.754 87.9086C127.944 89.8821 128.689 95.5061 128.706 98.1679C128.746 104.646 130.665 104.373 136.016 104.045C137.578 103.945 139.136 103.8 140.689 103.611L140.956 103.585C145.175 103.191 150.068 103.609 154.306 103.648C156.382 103.667 165.862 104.963 166.8 103.166C168.319 100.254 167.817 90.6596 166.848 87.5304ZM125.109 87.5881C121.928 87.3409 119.49 87.2106 116.294 87.3654C111.198 87.4829 106.101 87.5211 101.005 87.4804C97.624 87.4696 89.7728 87.1239 87.109 87.8824C85.8005 89.8291 86.62 98.7641 86.8135 101.384C87.0587 104.7 94.0432 104.216 96.4402 103.767C104.334 102.559 113.469 104.192 121.397 104.046C122.386 104.027 124.077 103.793 124.766 103.028C125.53 101.115 125.393 89.9574 125.109 87.5881ZM171.096 103.013C178.428 106.001 186.958 100.216 193.592 105.279C194.018 105.605 194.754 107.294 195.004 107.857C197.916 108.237 204.885 108.452 207.941 108.114C211.401 106.741 210.351 103.27 209.17 100.584C206.762 95.1081 201.977 91.2424 196.378 89.3404C190.1 87.3976 179.05 87.0874 172.155 87.5864C171.042 88.4489 170.567 89.1351 170.481 90.6146C170.267 94.2711 170.389 99.4961 171.096 103.013ZM194.948 150.291C199.628 150.221 204.524 150.08 209.184 150.2C209.482 150.07 210.192 149.848 210.234 149.493C210.654 145.936 210.373 141.795 210.129 138.172C209.559 129.692 211.096 119.699 210.254 111.455C206.388 111.462 202.519 111.512 198.656 111.356C197.865 111.324 197.078 111.236 196.288 111.324C194.782 112.12 194.438 114.341 194.483 115.896C194.658 121.926 194.986 127.945 194.943 133.982C194.936 139.834 194.38 144.41 194.948 150.291ZM194.701 189.302L194.999 192.275C200.062 192.128 205.153 192.333 210.236 192.154C210.61 187.303 210.041 180.414 210.025 175.237C210.003 168.335 210.613 160.458 210.243 153.735C206.461 153.389 199.387 153.442 195.507 154.06C195.056 154.132 195.01 154.489 194.759 154.978C194.302 156.639 194.916 169.538 194.947 172.649C194.993 177.071 194.466 185.178 194.701 189.302ZM153.093 127.719C157.074 127.797 167.219 128.46 170.351 127.023C170.628 125.876 170.868 124.519 171.484 123.539C172.775 121.561 178.098 110.919 178.777 108.726C169.341 106.542 164.861 107.465 155.692 107.282C154.849 107.384 154.274 107.346 153.691 107.92C152.836 110.39 153.479 123.409 153.093 127.719ZM106.784 127.969C112.263 127.952 122.77 128.322 127.764 127.725C127.477 126.007 127.512 124.374 127.506 122.643C127.489 117.456 127.613 112.308 127.34 107.126C122.985 107.12 110.586 107.654 107.086 107.008C106.409 109.412 106.851 124.444 106.784 127.969ZM129.839 127.81C133.625 127.994 146.713 128.279 150.207 127.786L150.651 127.498C150.822 126.265 150.735 125.012 150.755 123.769C150.841 118.269 150.587 112.676 150.775 107.187C143.897 107.375 137.016 107.368 130.138 107.166C129.628 112.067 129.929 122.402 129.839 127.81ZM145.358 165.207C150.904 164.875 160.291 165.168 166.038 165.218C165.543 153.707 168.107 147.094 159.747 137.689C157.053 139.979 149.046 149.593 146.951 150.794C145.238 152.634 145.188 153.604 145.226 156.211C145.079 159.549 145.144 161.861 145.358 165.207ZM130.044 152.665C132.527 152.763 143.045 153.016 145.071 151.671C145.723 151.237 148.157 147.161 148.852 146.118C150.157 144.33 155.741 136.57 155.544 134.805C153.2 130.639 134.783 133.166 130.108 132.307C129.997 133.039 129.967 133.763 129.973 134.502C130.025 140.552 129.829 146.618 130.044 152.665ZM190.883 138.832L190.891 138.654C191.345 127.233 191.112 120.53 183.312 112.046C179.946 114.576 175.47 120.87 172.747 124.402C172.174 125.144 170.939 127.106 170.719 127.916C170.082 130.262 170.122 137.055 170.515 139.363C172.86 140.208 185.222 140.007 188.092 139.748C188.324 139.588 188.629 139.394 188.832 139.21C189.542 139.019 190.161 138.941 190.883 138.832ZM104.242 107.285C100.555 107.15 93.901 107.05 90.265 107.276L89.4287 107.637C89.398 108.15 99.9422 124.939 100.638 127.175C100.841 127.827 102.077 127.975 102.849 128.011C103.215 128.027 103.582 128.039 103.949 128.047C104.062 127.899 104.2 127.719 104.363 127.507C104.209 121.463 104.551 113.107 104.242 107.285ZM121.195 195.969C125.489 196.011 129.6 195.472 134.125 195.523C136.553 195.525 138.98 195.544 141.407 195.582C141.507 192.873 141.536 190.163 141.494 187.453C136.976 187.554 132.381 187.427 127.896 187.61C126.024 187.695 122.405 187.559 121.155 188.739C120.276 190.278 120.983 194.008 121.195 195.969ZM145.143 169.999L144.799 170.228C144.501 172.902 144.765 185.948 145.007 188.697C146.16 188.546 147.617 188.369 148.747 188.771L148.254 188.816C150.598 189.114 164.375 189.53 165.74 188.491C165.93 188.141 166.141 187.52 166.115 187.128C165.683 180.465 165.921 173.906 166.086 167.235C159.968 167.741 152.038 166.879 145.536 167.608C145.15 168.182 145.203 169.204 145.143 169.999ZM120.329 176.255C119.64 177.296 122.986 162.272 123.261 161.407C123.647 159.893 123.923 157.877 124.37 156.511C119.861 156.46 114.12 156.282 109.641 156.66C110.784 160.48 111.25 172.793 111.274 177.074C114.899 177.077 116.886 177.28 120.329 176.255ZM127.523 152.376C127.752 151.262 127.529 148.378 127.56 147.051C127.667 142.334 127.351 137.133 127.55 132.454C123.452 132.369 119.352 132.354 115.253 132.407C113.636 132.424 108.443 132.584 107.134 132.326C106.048 137.994 107.481 147.358 109.252 152.798C115.316 152.441 121.424 152.646 127.523 152.376ZM190.936 141.727C188.737 140.869 173.815 141.739 170.346 141.575C170.205 148.813 170.276 155.619 170.305 162.833C173.378 161.765 186.168 162.555 190.515 162.372C190.542 162.348 190.574 162.329 190.598 162.301C191.265 161.548 190.995 144.272 190.936 141.727ZM165.883 200.358C165.923 197.508 166.139 193.072 165.928 190.388C163.195 190.611 147.383 190.874 145.258 190.404L145.376 195.95C148.819 197.071 152.81 197.534 156.394 198.218C158.054 198.534 164.85 200.768 165.883 200.358ZM170.499 202.32C176.572 203.908 184.821 210.805 190.712 209.451C191.26 207.734 190.857 192.043 190.991 188.467C188.669 188.782 172.727 188.941 170.337 188.684C170.186 193.497 170.306 197.527 170.499 202.32ZM210.27 195.715C206.751 195.514 203.225 195.48 199.702 195.613C198.176 195.73 196.615 195.87 195.089 195.937C194.221 199.504 194.698 210.72 195.083 214.806C198.826 217.312 203.412 221.43 206.949 224.447C207.892 225.216 209.043 226.211 210.027 226.887C210.053 220.842 210.063 214.794 210.092 208.749C210.113 204.438 210.443 200.013 210.27 195.715ZM186.781 185.623L190.927 185.938L190.952 165.363C185.893 165.713 179.172 165.138 174.636 165.608C173.272 165.675 171.565 165.807 170.225 165.777C170.219 168.576 169.849 184.634 170.721 185.966C174.855 185.452 182.574 185.256 186.781 185.623ZM109.448 197.763C110.651 197.601 113.643 197.466 114.498 197.241C115.303 196.821 116.476 196.333 116.95 195.625C117.687 192.933 113.891 186.377 111.417 184.969C110.283 186.894 109.545 195.441 109.448 197.763ZM124.503 184.295C129.238 184.636 134.092 184.347 138.841 184.555C139.649 184.59 140.541 184.628 141.344 184.547C142.461 176.008 141.334 159.487 129.171 157.756C128.484 157.658 125.458 165.467 124.648 166.824C123.748 169.962 121.536 173.719 120.77 176.252C120.983 179.347 120.856 180.888 120.762 183.92C121.98 184.047 123.291 184.21 124.503 184.295ZM77.7215 87.3629C76.1187 87.4141 73.1355 87.1941 72.124 88.1926C71.8023 90.3361 78.4335 96.4784 80.1415 97.8266C81.238 98.7666 82.3638 99.6716 83.5173 100.54C83.322 98.8489 83.256 97.2894 83.233 95.5871C83.155 89.8271 84.82 87.2089 77.7215 87.3629Z" fill="#E7DDCA"/>
<path d="M124.784 287.703C124.973 287.371 124.83 287.486 125.188 287.321L126.073 289.423L126.311 289.406C127.122 286.901 125.812 288.183 126.426 285.836C126.814 287.108 127.168 288.236 127.445 289.543C132.578 287.623 135.857 289.073 140.661 291.053C140.505 291.831 140.455 291.933 140.052 292.618C138.92 293.251 138.906 292.121 138.342 292.861C140.005 293.921 141.645 295.021 143.26 296.153C144.189 296.083 145.95 295.918 146.819 295.971C145.926 296.243 145.782 296.111 145.356 296.761C145.276 300.196 145.604 303.553 145.408 306.998H143.385H116.37H114.195C114.233 305.781 114.299 302.553 114.852 301.576C115.225 301.308 115.322 301.106 115.572 300.731C115.592 299.986 115.645 299.598 115.863 298.886C118.714 293.948 120.719 293.183 125.298 289.938C125.47 289.306 125.024 288.386 124.784 287.703Z" fill="#F17C2C"/>
<path d="M124.784 287.703C124.973 287.371 124.83 287.486 125.188 287.321L126.073 289.423L126.311 289.406C127.122 286.901 125.812 288.183 126.426 285.836C126.814 287.108 127.168 288.236 127.445 289.543C132.578 287.623 135.857 289.073 140.661 291.053C140.505 291.831 140.455 291.933 140.052 292.618C138.92 293.251 138.906 292.121 138.342 292.861C126.143 288.951 118.336 294.948 116.37 306.998H114.195C114.233 305.781 114.299 302.553 114.852 301.576C115.225 301.308 115.322 301.106 115.572 300.731C115.592 299.986 115.645 299.598 115.863 298.886C118.714 293.948 120.719 293.183 125.298 289.938C125.47 289.306 125.024 288.386 124.784 287.703Z" fill="#ECDFB8"/>
<path d="M143.262 296.154C144.191 296.084 145.952 295.919 146.821 295.971C145.928 296.244 145.783 296.111 145.358 296.761C145.278 300.196 145.606 303.554 145.41 306.999H143.387C143.212 303.604 143.664 299.524 143.262 296.154Z" fill="#D5CAB3"/>
<path d="M20.3481 164.158C24.5938 162.019 29.1466 159.978 33.2429 157.68C34.2254 160.435 34.8756 163.135 35.6846 165.747C38.0536 173.396 37.7751 176.253 36.5819 183.913C32.5819 183.285 29.6556 182.71 25.7081 181.657C23.789 181.145 19.5304 179.951 17.6938 179.677L17.3993 179.815C16.678 179.84 15.7886 179.349 15.0858 179.042C15.6851 174.316 15.3353 170.929 13.1837 166.718C13.1013 164.2 13.9023 166.263 13.3423 163.56L14.3136 164.617C15.9621 164.995 16.7986 163.683 18.7193 162.578C18.3043 163.551 17.7631 164.058 16.7083 164.244C16.0382 164.865 15.9507 164.948 15.7011 165.822L15.869 166.184L16.273 166.065L15.7054 165.932L15.7093 165.8L16.5054 165.905C17.4983 164.931 18.6955 164.494 19.9467 163.934L20.3481 164.158Z" fill="#F17C2C"/>
<path d="M13.3423 163.56L14.3136 164.617C15.9621 164.995 16.7986 163.683 18.7193 162.578C18.3043 163.551 17.7631 164.058 16.7083 164.244C16.0382 164.865 15.9507 164.948 15.7011 165.822L15.869 166.184L16.273 166.065L15.7054 165.932L15.7093 165.8L16.5054 165.905C17.4983 164.931 18.6955 164.494 19.9467 163.934L20.3481 164.158C18.9482 164.981 17.3797 165.811 16.0278 166.63C16.8381 168.824 17.4592 170.325 17.8148 172.69C18.0706 174.392 16.9753 178.83 17.6938 179.677L17.3993 179.815C16.678 179.84 15.7886 179.349 15.0858 179.042C15.6851 174.316 15.3353 170.929 13.1837 166.718C13.1013 164.2 13.9023 166.263 13.3423 163.56Z" fill="#F1DEB2"/>
<path d="M0 161.946C1.53375 161.872 8.43462 162.056 9.93902 162.269C7.72317 163.972 7.61598 163.021 5.48373 163.442L10.2457 163.541C11.276 164.568 12.3184 165.548 13.1829 166.719C15.3344 170.93 15.6842 174.318 15.0849 179.043C15.7877 179.351 16.6772 179.842 17.3984 179.817L16.9936 180.515C17.0839 180.803 17.1462 181.021 17.2641 181.301C16.4817 182.202 15.1875 185.696 13.4387 187.422C12.2979 188.547 8.5805 190.793 8.29167 191.229C8.5348 191.848 8.7569 192.361 9.03872 192.963L8.39135 192.882C7.89562 192.263 7.81355 192.08 7.13965 191.708L6.6103 191.959C4.60267 193.006 2.261 192.942 0 193.04V190.894V163.608V161.946Z" fill="#F17C2C"/>
<path d="M15.0849 179.039C15.7877 179.347 16.6772 179.838 17.3984 179.813L16.9936 180.511C17.0839 180.799 17.1462 181.017 17.2641 181.297C16.4817 182.198 15.1875 185.692 13.4387 187.418C12.2979 188.543 8.5805 190.789 8.29167 191.225C8.5348 191.844 8.7569 192.357 9.03872 192.959L8.39135 192.878C7.89562 192.259 7.81355 192.076 7.13965 191.704L6.6103 191.955C4.60267 193.002 2.261 192.938 0 193.036V190.89C8.08272 189.531 11.9467 186.781 15.0849 179.039Z" fill="#F1DEB2"/>
<path d="M0 161.946C1.53375 161.872 8.43462 162.056 9.93902 162.269C7.72317 163.972 7.61598 163.021 5.48373 163.442C4.16033 163.587 1.43013 163.573 0 163.608V161.946Z" fill="#D5CAB3"/>
<path d="M0 215.66C0.219759 214.936 0.222246 213.94 0.65508 213.571C0.69449 214.043 0.73976 214.409 0.811655 214.877C2.64525 216.117 6.04395 213.937 7.82858 215.038C10.5381 214.742 11.4909 214.452 13.955 213.531C15.1937 214.023 16.1508 214.368 17.425 214.755C20.3117 219.787 21.5727 225.447 24.7674 229.897C18.4918 232.462 11.7817 234.703 4.9511 234.933C4.14705 234.96 2.18094 235.019 1.53161 234.733C1.06019 234.737 0.47379 234.911 0 235.027V215.66Z" fill="#F17C2C"/>
<path d="M0 215.66C0.219759 214.936 0.222246 213.94 0.65508 213.57C0.69449 214.043 0.73976 214.409 0.811655 214.877C2.64525 216.116 6.04395 213.937 7.82858 215.037C5.66243 215.39 3.7355 215.588 1.54793 215.799C1.83336 217.748 1.74615 220.177 1.65661 222.177C1.47031 226.338 1.68037 230.591 1.53161 234.733C1.06019 234.737 0.47379 234.91 0 235.027V215.66Z" fill="#F1DEB2"/>
<path d="M98.709 289.822C102.942 281.649 109.996 275.287 118.562 271.914C120.535 277.099 122.768 282.444 124.786 287.702C125.026 288.384 125.471 289.304 125.3 289.937C120.72 293.182 118.715 293.947 115.865 298.884C113.863 297.327 100.944 290.457 98.709 289.822Z" fill="#F17C2C"/>
<path d="M123.084 270.444C132.756 268.834 140.404 269.464 149.54 273.534C147.648 277.331 141.477 287.961 140.662 291.054C135.857 289.074 132.578 287.624 127.446 289.544C127.169 288.236 126.815 287.109 126.427 285.836C126.068 283.694 125.211 280.761 124.744 278.466C124.279 276.184 123.728 272.494 123.084 270.444Z" fill="#F17C2C"/>
<path d="M17.2634 181.297C20.5206 183.146 31.3021 187.351 34.9061 188.688C30.9746 196.72 25.4836 204.617 17.0602 208.449C16.1038 206.258 10.3144 194.411 9.03807 192.959C8.75624 192.357 8.53414 191.843 8.29102 191.224C8.57984 190.788 12.2972 188.543 13.438 187.417C15.1868 185.691 16.481 182.198 17.2634 181.297Z" fill="#F17C2C"/>
<path d="M15.6028 138.047C19.5662 141.581 28.6708 150.062 30.8298 154.481C27.6578 156.993 20.9555 160.552 18.718 162.581C16.7973 163.686 15.9608 164.998 14.3123 164.619L13.341 163.563C13.3258 163.524 13.3094 163.486 13.2954 163.448C13.272 163.383 13.2514 163.318 13.2286 163.253C12.27 160.53 12.4078 145.063 12.5431 141.469C13.5346 140.135 14.4502 139.232 15.6028 138.047Z" fill="#F17C2C"/>
<path d="M95.0415 306.997C94.9083 300.957 95.2528 299.149 96.9418 293.352C99.599 294.624 103.04 295.759 105.845 296.847C108.441 297.854 111.941 299.497 114.542 300.177C114.961 300.669 114.827 300.804 114.854 301.574C114.3 302.552 114.235 305.779 114.197 306.997H95.0415Z" fill="#F17C2C"/>
<path d="M0 193.042C2.261 192.944 4.60267 193.007 6.6103 191.961C7.24848 194.441 8.55265 197.551 9.47657 200.029C10.3993 202.504 11.6752 207.334 12.8717 209.398C12.3351 211.765 2.02992 212.078 0 212.146V193.042Z" fill="#F17C2C"/>
<path d="M49.9627 295.797C57.7779 296.662 61.5089 297.374 69.1599 298.972C68.8387 301.464 68.7264 304.477 68.7694 306.997H49.5449C49.5919 303.407 49.6327 299.372 49.9627 295.797Z" fill="#F17C2C"/>
<path d="M0 238.594C2.9949 238.55 5.4598 238.599 8.39513 237.922C8.54835 241.762 10.2118 253.302 10.9822 257.129C7.39895 257.297 3.56877 257.544 0 257.514V238.594Z" fill="#F17C2C"/>
<path d="M16.6766 212.039C16.8769 212.836 17.1397 214.025 17.4251 214.751C16.1508 214.364 15.1938 214.018 13.9551 213.527C14.8099 213.077 15.8822 212.549 16.6766 212.039Z" fill="#E69646"/>
<path d="M73.1824 96.9609C77.9534 98.1259 85.9844 109.38 88.1149 113.795C84.7909 118.818 77.5727 123.025 72.3369 125.624L71.5187 125.89C68.7119 124.651 59.7289 113.988 57.8672 111.098C61.6352 106.315 67.8882 99.9354 73.1824 96.9609Z" fill="#DD632A"/>
<path d="M42.574 249.977L43.0338 250.139C43.739 252.067 46.314 255.712 47.5468 257.787C49.8693 261.694 51.0458 264.324 52.7588 268.434C48.2648 273.117 40.9895 275.744 34.7793 277.144C33.5928 277.454 32.4135 277.792 31.2428 278.157C27.6768 271.899 25.564 264.917 25.0605 257.732C27.8583 256.547 30.6785 254.924 33.5568 253.707C36.5173 252.454 39.7178 251.344 42.574 249.977Z" fill="#DD632A"/>
<path d="M75.123 218.154C77.9732 217.903 90.296 225.916 92.6942 228.047C91.672 234.833 85.39 242.013 80.719 246.732L79.1025 247.892C72.0552 242.351 69.2445 240.417 63.877 233.219C66.8562 228.427 70.9385 221.918 75.123 218.154Z" fill="#DD632A"/>
<path d="M231.798 255.724C234.889 255.259 245.571 267.631 247.273 270.214C244.909 275.044 237.447 281.766 232.879 284.734C232.583 284.859 232.342 284.866 232.02 284.911C228.456 283.351 219.406 273.799 217.418 269.851C219.791 266.069 227.677 258.149 231.798 255.724Z" fill="#DD632A"/>
<path d="M36.1352 60.4453C41.4102 62.1243 48.3314 70.5393 51.4804 74.7898C48.4344 79.7753 41.6277 86.8938 36.5969 89.3698C35.2242 89.0161 33.9784 87.6788 32.8579 86.7653C27.7314 82.5868 24.7935 79.4231 21.2324 73.9308C25.5167 69.2596 30.6369 63.6083 36.1352 60.4453Z" fill="#DD632A"/>
<path d="M90.6835 118.758C95.1473 119.918 100.163 135.437 101.406 139.784C96.9585 142.941 89.0975 145.166 83.8855 146.357C83.0238 146.479 82.7738 146.538 81.882 146.39C79.3643 144.221 74.2165 132.895 73.2383 129.423C77.2135 126.054 85.7413 120.462 90.6835 118.758Z" fill="#DD632A"/>
<path d="M213.234 237.708C217.303 237.265 226.641 248.785 229.068 251.88C224.35 258.6 220.511 261.718 214.112 266.693C211.616 266.833 200.4 253.773 198.598 251.035C204.047 246.332 205.617 242.309 213.234 237.708Z" fill="#DD632A"/>
<path d="M192.813 218.883C198.207 219.693 207.27 229.008 210.535 233.005C207.607 238.913 202.444 242.947 197.413 247.057L195.431 248.514C190.349 244.091 184.833 240.697 181.074 235.452C182.696 231.035 189.384 222.053 192.813 218.883Z" fill="#DD632A"/>
<path d="M54.5863 78.7422C58.7193 79.6994 67.5313 89.7017 69.7221 93.3139C65.5208 100.139 60.8946 103.243 55.1006 108.182C49.3378 104.103 43.6163 98.5047 39.6523 92.6487C43.0396 88.5879 50.0923 81.0674 54.5863 78.7422Z" fill="#DD632A"/>
<path d="M61.0454 236.242C61.5836 236.521 63.3001 238.157 63.8609 238.639C68.6946 242.798 71.7726 245.939 75.5416 251.1C72.1431 257.13 65.1771 261.482 59.3611 265.137L57.4676 266.285C51.3446 259.962 49.8814 256.26 46.0566 248.488C49.7139 244.871 56.8486 239.019 61.0454 236.242Z" fill="#DD632A"/>
<path d="M122.319 199.097C126.17 198.96 129.948 198.809 133.784 199.285C134.919 206.502 134.126 213.502 133.333 220.684C129.974 220.832 126.247 221.686 122.743 221.988C119.957 222.428 117.283 222.3 114.479 222.201C112.725 217.978 111.494 213.005 110.696 208.534C110.434 207.061 109.753 203.588 110.758 202.47C113.055 199.917 119.171 199.361 122.319 199.097Z" fill="#DD632A"/>
<path d="M17.3449 258.84C17.8226 258.73 19.6784 258.713 20.2764 258.695C24.0311 263.588 25.4318 273.615 25.5198 279.673C20.0385 281.83 16.0845 282.275 10.1935 282.56C8.39487 282.685 4.29267 283.148 2.84434 282.508C0.88633 280.085 1.09495 265.08 2.57206 262.13C3.28679 260.703 15.208 259.155 17.3449 258.84Z" fill="#DF6729"/>
<path d="M167.687 205.742C174.605 207.162 183.278 211.098 188.702 215.53C186.329 221.448 183.179 226.203 179.278 231.176C178.668 232.033 177.899 232.877 177.203 233.677C170.864 230.446 166.736 229.438 160.279 225.078C160.574 220.179 164.601 209.387 167.687 205.742Z" fill="#DD632A"/>
<path d="M100.399 145.331C100.543 145.316 101.524 145.222 101.599 145.246C106.983 146.966 107.062 165.355 107.079 168.408C100.86 169.436 95.8701 169.732 89.6266 169.689L86.1251 169.371C84.9628 162.52 83.4358 158.611 82.5586 150.798C86.9198 147.961 95.2611 145.944 100.399 145.331Z" fill="#DD632A"/>
<path d="M99.3149 172.88C104.226 172.73 108.143 171.868 108.009 178.228C107.88 184.381 107.135 190.751 105.337 196.647C101.264 196.736 98.2959 196.414 94.3264 195.65C90.6887 194.861 88.0114 193.885 84.7622 192.157C84.5687 186.632 85.3482 178.765 86.2399 173.292C88.8994 172.81 96.2194 172.903 99.3149 172.88Z" fill="#DD632A"/>
<path d="M83.771 196.719C90.7405 197.302 97.961 198.451 103.871 202.369C103.471 208.025 99.5997 218.823 95.9837 223.004L95.1055 223.724C91.3242 224.334 79.5972 215.604 76.5312 214.4C78.922 209.364 81.375 200.595 83.771 196.719Z" fill="#DD632A"/>
<path d="M140.759 199.78C146.876 199.564 157.462 200.471 162.221 204.488C161.568 209.36 159.689 216.999 157.492 221.366C157.078 222.152 156.578 222.904 156.101 223.656C149.212 223.173 144.366 222.465 137.596 220.911C137.201 216.74 137.118 204.918 138.872 201.027C139.239 200.214 139.962 200.018 140.759 199.78Z" fill="#DD632A"/>
<path d="M32.1743 282.066C35.9088 281.841 38.7603 282.739 42.1898 283.889C48.823 286.114 48.639 287.376 47.617 293.776C46.992 297.691 46.4118 301.349 45.4568 305.264L41.002 305.471C35.8623 305.514 30.027 305.374 24.9645 304.449C24.1713 300.124 24.3347 288.793 26.5783 284.711C27.536 282.968 30.2895 282.491 32.1743 282.066Z" fill="#DD632A"/>
<path d="M62.8294 169.51C69.1559 168.895 75.2567 169.126 82.0254 168.375C82.0037 170.021 82.1384 171.707 82.2394 173.353C83.1679 174.413 82.3604 185.973 82.3644 188.171C82.3689 190.629 81.4552 191.314 80.3702 192.999C80.0969 192.845 80.1502 192.866 79.8684 192.828C76.5542 192.372 69.1989 190.754 66.2214 189.586C65.1084 189.441 63.1427 188.904 61.9889 188.624C61.9039 188.331 61.8792 188.058 61.8359 187.755L62.3167 187.134C62.9909 183.184 63.1812 173.235 62.8294 169.51Z" fill="#F17C2C"/>
<path d="M82.2394 173.359C83.1679 174.419 82.3604 185.979 82.3644 188.177C82.3689 190.635 81.4552 191.321 80.3702 193.005C80.0969 192.852 80.1502 192.873 79.8684 192.834C76.5542 192.379 69.1989 190.76 66.2214 189.592C65.1084 189.448 63.1427 188.91 61.9889 188.631C61.9039 188.337 61.8792 188.064 61.8359 187.761L62.3167 187.141C64.3049 187.268 65.5827 187.447 67.5494 187.782C69.7152 187.639 79.0117 189.222 81.5699 189.633C82.2614 183.117 81.9484 179.462 82.2394 173.359Z" fill="#F1DEB2"/>
<path d="M62.3167 187.141C64.3049 187.268 65.5827 187.447 67.5494 187.782C65.8714 188.47 64.9524 187.479 63.7387 188.104C64.2307 189.676 65.3117 188.36 66.3382 189.134L66.2214 189.592C65.1084 189.448 63.1427 188.91 61.9889 188.631C61.9039 188.337 61.8792 188.064 61.8359 187.761L62.3167 187.141Z" fill="#D5CAB3"/>
<path d="M17.552 41.9195C21.0768 41.6255 30.7601 53.2368 33.0121 56.3783C30.1826 60.522 27.7489 63.1333 24.0857 66.491C22.0586 68.2393 20.2773 69.8165 18.0647 71.3465C15.8133 69.702 14.4811 68.542 12.5845 66.542C12.2527 60.955 12.5537 51.5208 12.5345 45.5725C13.9121 44.1343 15.8594 42.9535 17.552 41.9195Z" fill="#DD632A"/>
<path d="M42.7096 221.43C44.4019 223.094 45.9371 224.714 47.4951 226.503C50.1421 229.542 52.5521 233.463 55.9254 235.67C51.7691 239.62 46.2596 243.997 41.3746 247.014L37.8109 249.086C35.4344 243.619 31.8991 237.531 29.2246 231.635C33.8381 227.845 37.8689 225.869 42.7096 221.43Z" fill="#F17C2C"/>
<path d="M26.2421 232.492C27.9919 233.549 32.7796 246.591 35.3409 250.024C30.2004 252.309 24.703 253.824 19.3457 255.596C17.3263 256.059 15.6146 256.319 13.5608 256.619C13.1469 252.339 11.7177 241.35 10.8281 237.345C14.3337 236.478 23.5147 234.22 26.2421 232.492Z" fill="#F17C2C"/>
<path d="M203.325 261.688C204.228 261.788 215.359 273.45 217.135 275.095C214.216 279.615 207.82 285.142 203.638 288.75C198.116 284.438 194.604 279.347 189.582 275.155C194.789 270.432 198.459 266.335 203.325 261.688Z" fill="#F17C2C"/>
<path d="M46.969 105.711C50.661 108.137 57.4972 116.142 61.3177 119.619C56.3607 124.475 51.825 127.009 47.1725 132.733C46.9722 132.865 46.9987 132.794 46.6417 132.755C44.2112 129.457 36.6942 122.747 33.418 119.348C35.1767 116.757 44.1082 108.482 46.969 105.711Z" fill="#F17C2C"/>
<path d="M58.7529 163.523C59.1321 164.013 59.0696 165.438 59.1621 166.138C60.1221 173.407 59.6691 180.001 58.9209 187.234C54.9786 186.124 48.3769 184.927 44.1899 183.981C42.7061 183.572 41.4199 183.289 39.9211 182.975C40.1469 177.957 40.8594 172.047 39.5254 167.307C45.1501 165.397 51.7186 165.961 57.4801 164.452C57.8209 164.363 58.4816 163.771 58.7529 163.523Z" fill="#F17C2C"/>
<path d="M31.1963 201.172C35.4523 205.331 40.7136 210.428 45.3538 214.104C44.1288 215.447 42.9716 216.983 41.6701 218.399C38.4593 221.889 35.2728 223.771 31.3043 226.226L27.5426 228.612C26.3983 226.23 24.9721 223.764 23.7346 221.375C22.0573 218.138 20.437 214.402 18.6484 211.283C24.5214 207.894 26.6053 205.913 31.1963 201.172Z" fill="#F17C2C"/>
<path d="M187.407 245.891C187.702 246.067 190.192 248.693 190.688 249.166C194.349 252.69 198.085 256.138 201.892 259.505C201.388 259.965 200.961 260.5 200.503 261.008C196.661 265.253 192.387 269.078 188.275 273.073L188.049 273.173C186.439 272.843 177.347 262.428 174.02 259.998C176.449 257.945 185.432 248.328 187.407 245.891Z" fill="#F17C2C"/>
<path d="M47.8991 139.75L48.3196 139.84C52.6781 146.021 55.9736 152.886 58.0701 160.152C52.8813 161.682 47.6768 163.16 42.4581 164.584C41.7188 164.75 40.1778 164.85 39.3613 164.926C37.9883 160.146 35.2308 154.977 32.6836 150.669C34.9006 148.501 37.0813 147.556 39.5236 145.774C42.3966 143.678 44.8461 141.617 47.8991 139.75Z" fill="#F17C2C"/>
<path d="M39.4199 184.836C41.0611 185.795 55.1656 189.955 57.9414 190.797C56.1241 196.555 52.6146 204.202 49.5206 209.536C49.0834 210.253 48.6379 210.812 48.1276 211.471C42.6889 208.05 37.8864 203.186 32.4219 199.449C34.9024 196.531 38.8149 188.829 39.4199 184.836Z" fill="#F17C2C"/>
<path d="M93.2306 260.969C96.6604 265.564 101.702 271.466 105.597 275.619C101.703 280.934 99.0974 281.724 95.8314 288.489C94.9431 287.824 93.8779 287.296 92.8921 286.771C90.0629 285.259 81.0564 280.254 78.6094 279.511C84.3264 270.329 85.4069 268.666 93.2306 260.969Z" fill="#F17C2C"/>
<path d="M146.627 248.875C153.589 250.117 162.091 254.104 167.391 258.812C165.594 262.682 161.606 266.689 158.963 270.421C157.837 271.979 157.422 272.454 156.027 273.774C150.941 271.712 147.195 268.132 141.607 267.377C142.998 262.384 146.611 253.567 146.627 248.875Z" fill="#F17C2C"/>
<path d="M57.5349 272.141C58.7756 272.268 72.7326 279.356 74.7241 280.408C72.5351 284.508 71.0934 291.183 69.5439 295.663C69.4594 295.906 68.8264 295.841 68.4381 295.856C62.9951 295.683 55.8229 293.971 50.5781 292.493C52.4156 285.538 53.5949 278.003 57.5349 272.141Z" fill="#F17C2C"/>
<path d="M170.614 261.156C173.221 263.984 175.998 266.236 178.791 268.846C180.87 270.789 182.971 273.104 184.924 275.199C180.64 280.074 176.595 283.916 171.854 288.331C171.82 288.341 171.788 288.361 171.753 288.361C169.7 288.386 160.72 277.551 157.953 275.649C161.923 271.434 166.561 265.654 170.614 261.156Z" fill="#F17C2C"/>
<path d="M76.948 282.555C77.9493 282.925 81.5308 284.71 82.7943 285.272C86.811 287.032 90.8623 288.715 94.946 290.317C92.4208 295.075 92.399 300.935 91.0943 305.442L90.7 305.642C84.6568 305.662 78.5783 305.13 72.4933 305.317C72.4185 295.2 73.7258 291.78 76.948 282.555Z" fill="#F17C2C"/>
<path d="M75.2827 143.992C75.6327 144.035 75.5697 144.065 75.9057 144.277C79.2262 150.347 80.9417 158.229 81.9589 165.047C76.3629 165.466 70.7729 165.963 65.1907 166.539C64.2862 166.683 63.6609 166.843 62.7607 166.66C62.4432 166.254 61.7984 162.505 61.6239 161.708C60.7804 157.858 59.7952 154.323 57.8789 150.861C61.9679 149.545 65.8929 147.486 69.9297 146.002C71.7257 145.342 73.5067 144.706 75.2827 143.992Z" fill="#F17C2C"/>
<path d="M61.9884 188.625C63.1421 188.904 65.1079 189.442 66.2209 189.586C69.1984 190.754 76.5536 192.373 79.8679 192.828C80.1496 192.867 80.0964 192.846 80.3696 192.999C78.6006 199.264 76.8896 208.449 72.6354 213.28L55.7871 204.855C57.4549 200.437 59.5701 196.223 60.9781 191.708C61.2936 190.696 61.4011 189.471 61.9884 188.625Z" fill="#F17C2C"/>
<path d="M115.761 248.781C116.373 248.807 116.853 248.88 117.041 249.532C118.57 254.817 119.122 262.774 121.857 267.467C117.183 268.692 111.384 271.704 107.342 274.374C106.772 273.512 105.897 272.437 105.252 271.594C101.936 267.097 99.4609 263.167 95.7324 258.859C101.569 255.279 109.335 250.839 115.761 248.781Z" fill="#F17C2C"/>
<path d="M142.068 224.938C147.12 225.529 151.251 226.324 156.124 227.938C158.511 228.728 161.04 229.916 163.434 230.452C162.507 232.307 161.438 235.479 160.662 237.52C159.666 240.091 158.607 242.637 157.486 245.155C156.934 246.387 156.559 247.68 156.153 248.967C153.152 247.162 143.804 244.547 140.195 244.044C141.018 238.482 141.978 230.498 142.068 224.938Z" fill="#F17C2C"/>
<path d="M128.126 247.358C133.733 247.111 137.661 247.318 143.167 247.995C141.795 254.228 140.881 260.738 140.038 267.063C138.795 266.906 137.617 266.813 136.371 266.718C132.128 266.711 127.906 266.628 123.693 267.148C123.485 262.961 121.368 252.578 120.566 248.077C122.636 248.014 125.731 247.507 128.126 247.358Z" fill="#F17C2C"/>
<path d="M31.5565 90.4297C32.5938 90.7799 44.092 102.313 45.1768 103.585C41.6098 108.131 35.288 111.956 31.7175 117.156L31.4623 117.192C29.7958 116.283 19.8797 105.423 18.2559 103.534C19.9274 100.702 28.7678 92.5139 31.5565 90.4297Z" fill="#F17C2C"/>
<path d="M31.6589 122.352C35.6261 126.791 41.1016 131.34 45.6646 136.244C42.8186 139.671 40.8214 140.992 37.3064 143.726C36.7291 144.201 36.2491 144.612 35.6196 145.024C34.1639 146.166 32.3201 147.676 31.2291 149.142C26.6634 144.885 22.722 140.192 18.1602 135.835C20.087 133.262 28.8849 125.054 31.6589 122.352Z" fill="#F17C2C"/>
<path d="M113.632 226.275C114.069 226.206 113.894 226.216 114.354 226.376C114.704 230.6 117.21 241.268 118.212 245.53C113.467 246.208 106.635 249.018 102.203 250.924C101.882 250.411 101.396 249.396 101.1 248.822C100.932 248.576 99.9458 246.338 99.7135 245.859C97.755 241.821 95.8398 238.617 94.625 234.285C98.1628 230.738 108.74 227.457 113.632 226.275Z" fill="#F17C2C"/>
<path d="M128.107 224.35C131.316 223.953 135.378 224.358 138.565 224.77C138.523 230.974 137.664 237.616 137.518 244.044C134.923 243.682 131.486 243.836 128.803 243.897C126.043 243.998 123.287 244.208 120.543 244.526C119.005 237.455 118.932 231.552 117.639 225.354C121.123 224.968 124.613 224.633 128.107 224.35Z" fill="#F17C2C"/>
<path d="M63.0828 122.688C65.7668 123.598 73.6726 137.741 74.9708 140.494C70.0381 143.143 64.7883 145.029 59.6938 147.519L57.5088 148.626C55.2428 144.88 53.5691 140.873 50.8036 137.453C50.1128 136.598 49.4718 135.623 48.8301 134.724C52.3136 130.496 58.6338 126.02 63.0828 122.688Z" fill="#F17C2C"/>
<path d="M166.686 232.359C169.811 233.164 182.852 240.747 184.155 243.491C184.369 245.614 176.335 253.653 174.236 256.335L172.482 258.545C169.236 255.533 162.632 251.663 158.777 249.322C160.473 243.71 164.288 237.954 166.686 232.359Z" fill="#F17C2C"/>
<path d="M54.5604 206.609C58.0312 208.841 68.3294 215.073 71.7199 216.467C67.6497 221.113 65.0794 226.916 60.1889 231.941L57.9164 233.798C55.1409 230.395 47.4677 221.925 44.0137 220.088C48.0022 216.474 52.5792 211.699 54.5604 206.609Z" fill="#F17C2C"/>
<path d="M250.638 274.227C254.55 275.167 263.21 285.097 265.565 288.502C264.775 289.937 263.855 291.274 262.95 292.639C259.45 292.347 254.103 292.464 250.46 292.442L239.026 292.457C237.808 291.184 236.534 289.522 235.408 288.124C238.878 283.957 245.826 276.397 250.638 274.227Z" fill="#DD632A"/>
<path d="M15.6346 106.125C16.0086 106.394 18.8061 109.312 19.3136 109.812C22.7986 113.175 26.2573 116.566 29.6898 119.984C26.8836 122.799 24.0209 125.559 21.1034 128.259C19.262 129.953 17.4648 131.936 15.7419 133.768C14.2058 132.496 13.6768 131.983 12.6302 130.278C12.2993 124.431 12.59 115.506 12.6058 109.433C13.9245 108.176 14.5228 107.606 15.6346 106.125Z" fill="#F17C2C"/>
<path d="M76.3891 256.422C78.5391 257.504 83.3374 262.509 85.1396 264.377C81.5839 268.902 78.5164 273.079 75.5959 278.027C74.0286 277.167 72.2846 276.307 70.6849 275.482C66.8169 273.669 63.7806 271.439 59.5566 269.677C63.0676 266.917 67.1626 264.554 70.6731 261.774C72.5806 260.264 74.6346 258.157 76.3891 256.422Z" fill="#F17C2C"/>
<path d="M15.7195 74.1328C16.2986 74.3521 27.4185 85.7276 29.3735 87.4158C26.6643 90.3863 23.8672 93.2756 20.9859 96.0796C19.6936 97.1973 17.0746 100.016 15.7558 101.345C14.8195 100.456 13.5797 99.4403 12.586 98.5786C12.2435 92.4736 12.4344 83.6043 12.5629 77.3916C13.6043 76.2948 14.6565 75.2086 15.7195 74.1328Z" fill="#F17C2C"/>
<path d="M152.525 276.367C153.401 276.377 154.571 276.647 155.095 277.277C157.106 279.697 169.014 289.597 169.203 291.647C167.773 292.757 160.791 292.51 158.624 292.507C152.959 292.465 147.293 292.502 141.629 292.625C142.699 289.83 146.415 285.91 148.199 283.227C149.714 280.952 151.038 278.615 152.525 276.367Z" fill="#F17C2C"/>
<path d="M92.5201 238.414L92.7761 238.538C94.6456 243.006 98.1579 247.944 100.26 252.37C95.2101 255.05 91.3179 258.448 87.1491 262.308C86.3386 262.155 80.2856 255.42 79.3379 254.41C83.8146 249.12 88.1161 243.76 92.5201 238.414Z" fill="#F17C2C"/>
<path d="M187.193 277.133C187.461 277.235 187.444 277.215 187.601 277.445C191.629 283.388 197.966 285.28 201.171 292.158C197.331 292.74 191.624 292.465 187.625 292.398C184.696 292.49 177.315 292.885 174.432 291.968C174.147 291.878 174.164 291.523 174.086 291.15C174.41 290.008 175.084 288.895 175.944 288.078C179.774 284.433 183.88 281.333 187.193 277.133Z" fill="#F17C2C"/>
<path d="M219.141 277.211C223.687 282.351 229.656 286.688 233.338 291.963C229.735 292.753 223.988 292.536 220.187 292.528C217.842 292.528 207.52 293.116 206.549 291.236C207.136 288.328 217.018 280.953 219.141 277.211Z" fill="#F17C2C"/>
<path d="M107.341 207.953C108.598 209.668 110.713 221.485 109.682 223.336C108.796 224.926 102.716 226.652 100.565 227.356C100.098 227.492 98.9424 228.184 98.4609 228.454C99.4954 225.045 101.984 220.519 103.462 217.105C104.533 214.629 106.085 210.013 107.341 207.953Z" fill="#DD632A"/>
<path d="M52.8727 273.812L53.1877 273.985C52.7595 276.415 50.5252 280.462 48.8147 282.232C46.3622 282.02 44.529 281.587 42.1147 281.052C41.3407 280.842 41.1057 280.79 40.4105 280.4L40.3867 279.992C41.9522 278.172 50.3495 274.878 52.8727 273.812Z" fill="#DD632A"/>
<path d="M145.006 188.697C144.764 185.948 144.501 172.902 144.799 170.228L145.143 170C145.133 173.933 145.144 177.866 145.176 181.799C145.206 183.462 145.437 186.719 145.335 188.215C148.287 188.229 164.047 187.975 165.739 188.492C164.375 189.531 150.598 189.115 148.253 188.817L148.746 188.772C147.617 188.369 146.159 188.547 145.006 188.697Z" fill="#CBDDE0"/>
<path d="M120.33 176.255C119.641 177.296 122.987 162.271 123.262 161.406C123.145 164.342 123.21 166.777 121.936 169.405C121.828 169.627 122.196 170.718 122.417 170.903C123.48 169.195 123.438 168.786 124.121 166.934L124.649 166.824C123.749 169.961 121.536 173.719 120.771 176.251L120.33 176.255Z" fill="#98B0B8"/>
<path d="M170.516 139.365C174.232 138.879 184.558 139.24 188.832 139.212C188.629 139.396 188.324 139.59 188.092 139.75C185.222 140.009 172.861 140.21 170.516 139.365Z" fill="#CBDDE0"/>
<path d="M103.388 132.328L104.092 132.776C104.43 133.566 104.214 133.981 103.994 134.835C103.188 134.318 103.355 133.149 103.388 132.328Z" fill="#83857A"/>
<path d="M214.392 295.688C215.026 295.788 216.707 296.142 217.205 296.022C217.436 298.127 217.871 305.03 217.597 307.003H214.324C214.213 303.453 214.034 299.165 214.392 295.688Z" fill="#CBDDE0"/>
<path d="M166.571 295.822C167.176 295.79 168.916 295.66 169.407 295.77C169.661 298.11 169.739 304.602 169.549 306.997H166.497C166.417 304.02 166.258 298.7 166.571 295.822Z" fill="#CBDDE0"/>
<path d="M190.819 295.741C191.854 295.639 191.989 295.671 192.975 295.941C193.644 298.584 193.519 304.029 193.53 306.999H190.57C190.362 303.014 190.602 299.691 190.819 295.741Z" fill="#CBDDE0"/>
<path d="M238.531 295.922C239.307 295.929 240.178 295.954 240.945 295.924L241.076 306.999H238.693C238.427 305.352 238.388 297.712 238.531 295.922Z" fill="#CBDDE0"/>
<path d="M0 288.898C0.913193 289.623 1.10223 289.636 1.2048 291.083C1.57383 296.288 1.52452 301.788 1.51085 307.003H0V288.898Z" fill="#98B0B8"/>
<path d="M0 90.5414C2.36002 90.1717 7.18152 90.3629 9.5582 90.7672C9.50075 91.2022 9.34135 92.0084 9.4539 92.3954C7.52888 92.7634 2.19438 92.7352 0 92.7397V90.5414Z" fill="#CBDDE0"/>
</g>
<defs>
<clipPath id="clip0_3698_2269">
<rect width="295" height="307" fill="white"/>
</clipPath>
</defs>
</svg>
